<svg viewBox="0 0 168 37" fill="none" xmlns="http://www.w3.org/2000/svg">
<path d="M7.4375 9.65625H3.32812L2.54688 12H0.0546875L4.28906 0.625H6.46094L10.7188 12H8.22656L7.4375 9.65625ZM3.96094 7.75781H6.80469L5.375 3.5L3.96094 7.75781ZM11.7812 12V0.625H15.7656C17.1458 0.625 18.1927 0.890625 18.9062 1.42188C19.6198 1.94792 19.9766 2.72135 19.9766 3.74219C19.9766 4.29948 19.8333 4.79167 19.5469 5.21875C19.2604 5.64062 18.862 5.95052 18.3516 6.14844C18.9349 6.29427 19.3932 6.58854 19.7266 7.03125C20.0651 7.47396 20.2344 8.01562 20.2344 8.65625C20.2344 9.75 19.8854 10.5781 19.1875 11.1406C18.4896 11.7031 17.4948 11.9896 16.2031 12H11.7812ZM14.125 7.04688V10.1172H16.1328C16.6849 10.1172 17.1146 9.98698 17.4219 9.72656C17.7344 9.46094 17.8906 9.09635 17.8906 8.63281C17.8906 7.59115 17.3516 7.0625 16.2734 7.04688H14.125ZM14.125 5.39062H15.8594C17.0417 5.36979 17.6328 4.89844 17.6328 3.97656C17.6328 3.46094 17.4818 3.09115 17.1797 2.86719C16.8828 2.63802 16.4115 2.52344 15.7656 2.52344H14.125V5.39062ZM30.3438 2.52344H26.8594V12H24.5156V2.52344H21.0781V0.625H30.3438V2.52344ZM40.8125 6.57031C40.8125 7.6901 40.6146 8.67188 40.2188 9.51562C39.8229 10.3594 39.2552 11.0104 38.5156 11.4688C37.7812 11.9271 36.9375 12.1562 35.9844 12.1562C35.0417 12.1562 34.2005 11.9297 33.4609 11.4766C32.7214 11.0234 32.1484 10.3776 31.7422 9.53906C31.3359 8.69531 31.1302 7.72656 31.125 6.63281V6.07031C31.125 4.95052 31.3255 3.96615 31.7266 3.11719C32.1328 2.26302 32.7031 1.60938 33.4375 1.15625C34.1771 0.697917 35.0208 0.46875 35.9688 0.46875C36.9167 0.46875 37.7578 0.697917 38.4922 1.15625C39.2318 1.60938 39.8021 2.26302 40.2031 3.11719C40.6094 3.96615 40.8125 4.94792 40.8125 6.0625V6.57031ZM38.4375 6.05469C38.4375 4.86198 38.224 3.95573 37.7969 3.33594C37.3698 2.71615 36.7604 2.40625 35.9688 2.40625C35.1823 2.40625 34.5755 2.71354 34.1484 3.32812C33.7214 3.9375 33.5052 4.83333 33.5 6.01562V6.57031C33.5 7.73177 33.7135 8.63281 34.1406 9.27344C34.5677 9.91406 35.1823 10.2344 35.9844 10.2344C36.7708 10.2344 37.375 9.92708 37.7969 9.3125C38.2188 8.69271 38.4323 7.79167 38.4375 6.60938V6.05469ZM44.8516 0.625V10.1172H48.0078V0.625H50.3594V10.1172H53.4844V0.625H55.8281V12H42.5V0.625H44.8516ZM61.5703 7.35156H60.2188V12H57.875V0.625H60.2188V5.17969H61.2891L64.0703 0.625H66.9297L63.4219 6.00781L67.2969 12H64.5L61.5703 7.35156ZM77.2969 6.57031C77.2969 7.6901 77.099 8.67188 76.7031 9.51562C76.3073 10.3594 75.7396 11.0104 75 11.4688C74.2656 11.9271 73.4219 12.1562 72.4688 12.1562C71.526 12.1562 70.6849 11.9297 69.9453 11.4766C69.2057 11.0234 68.6328 10.3776 68.2266 9.53906C67.8203 8.69531 67.6146 7.72656 67.6094 6.63281V6.07031C67.6094 4.95052 67.8099 3.96615 68.2109 3.11719C68.6172 2.26302 69.1875 1.60938 69.9219 1.15625C70.6615 0.697917 71.5052 0.46875 72.4531 0.46875C73.401 0.46875 74.2422 0.697917 74.9766 1.15625C75.7161 1.60938 76.2865 2.26302 76.6875 3.11719C77.0938 3.96615 77.2969 4.94792 77.2969 6.0625V6.57031ZM74.9219 6.05469C74.9219 4.86198 74.7083 3.95573 74.2812 3.33594C73.8542 2.71615 73.2448 2.40625 72.4531 2.40625C71.6667 2.40625 71.0599 2.71354 70.6328 3.32812C70.2057 3.9375 69.9896 4.83333 69.9844 6.01562V6.57031C69.9844 7.73177 70.1979 8.63281 70.625 9.27344C71.0521 9.91406 71.6667 10.2344 72.4688 10.2344C73.2552 10.2344 73.8594 9.92708 74.2812 9.3125C74.7031 8.69271 74.9167 7.79167 74.9219 6.60938V6.05469ZM88 0.625V12H85.6484V2.52344H82.6172L82.4297 6.53906C82.3516 7.89323 82.1797 8.96094 81.9141 9.74219C81.6484 10.5182 81.2604 11.0885 80.75 11.4531C80.2396 11.8125 79.5417 11.9948 78.6562 12H78.0469V10.1172L78.4375 10.0781C79.026 10 79.4453 9.66146 79.6953 9.0625C79.9505 8.45833 80.112 7.38542 80.1797 5.84375L80.375 0.625H88ZM96.6094 9.65625H92.5L91.7188 12H89.2266L93.4609 0.625H95.6328L99.8906 12H97.3984L96.6094 9.65625ZM93.1328 7.75781H95.9766L94.5469 3.5L93.1328 7.75781ZM2.66309 28.3945L4.77246 31.9014H3.1377L0.676758 28.4736V28.3066L3.1377 24.8789H4.77246L2.66309 28.3945ZM6.04688 28.3945L8.15625 31.9014H6.52148L4.06055 28.4736V28.3066L6.52148 24.8789H8.15625L6.04688 28.3945ZM14.9414 26.25L17.2705 20.2031H20.1182L15.6445 30.7588L15.2842 31.4531C14.6221 32.6074 13.6084 33.1846 12.2432 33.1846L11.3203 33.1494L11.2939 31.0312C11.4346 31.0547 11.6631 31.0664 11.9795 31.0664C12.3486 31.0664 12.6445 31.002 12.8672 30.873C13.0957 30.7441 13.2861 30.5068 13.4385 30.1611L13.7637 29.3262L9.27246 20.2031H12.1113L14.9414 26.25ZM31.7285 20.2031V33H29.083V28.1484C28.2803 28.3184 27.4424 28.4033 26.5693 28.4033C24.9463 28.4033 23.7129 28.0488 22.8691 27.3398C22.0312 26.6309 21.6006 25.6055 21.5771 24.2637V20.2031H24.2227V24.2109C24.2285 24.9434 24.4043 25.4707 24.75 25.793C25.1016 26.1152 25.708 26.2764 26.5693 26.2764C27.4424 26.2764 28.2803 26.1914 29.083 26.0215V20.2031H31.7285ZM41.7305 27.4541H36.668V30.8818H42.6094V33H34.0312V20.2031H42.5918V22.3389H36.668V25.3887H41.7305V27.4541ZM52.5059 22.3389H46.793V24.8174H48.8496C50.3555 24.8174 51.5479 25.1836 52.4268 25.916C53.3115 26.6426 53.7539 27.624 53.7539 28.8604C53.7539 30.1025 53.3145 31.1016 52.4355 31.8574C51.5625 32.6074 50.3994 32.9883 48.9463 33H44.1299V20.2031H52.5059V22.3389ZM46.793 26.9443V30.8818H48.8936C49.5674 30.8818 50.1035 30.6973 50.502 30.3281C50.9062 29.959 51.1084 29.4639 51.1084 28.8428C51.1084 28.2627 50.915 27.8057 50.5283 27.4717C50.1475 27.1318 49.623 26.9561 48.9551 26.9443H46.793ZM65.8564 33H63.2197V27.5156H58.0781V33H55.4414V20.2031H58.0781V25.3887H63.2197V20.2031H65.8564V33ZM70.8486 24.8174H72.9053C74.4111 24.8174 75.6035 25.1836 76.4824 25.916C77.3672 26.6426 77.8096 27.624 77.8096 28.8604C77.8096 30.1025 77.3701 31.1016 76.4912 31.8574C75.6182 32.6074 74.4551 32.9883 73.002 33H68.1943V20.2031H70.8486V24.8174ZM81.5449 33H78.9082V20.2031H81.5449V33ZM70.8486 26.9443V30.8818H72.9492C73.623 30.8818 74.1592 30.6973 74.5576 30.3281C74.9619 29.959 75.1641 29.4639 75.1641 28.8428C75.1641 28.2627 74.9707 27.8057 74.584 27.4717C74.2031 27.1318 73.6787 26.9561 73.0107 26.9443H70.8486ZM91.5381 20.2031H94.1836V33H91.5381V24.501L86.4141 33H83.7773V20.2031H86.4141V28.7197L91.5381 20.2031ZM92.0479 16.8369C92.0479 17.6162 91.7666 18.2461 91.2041 18.7266C90.6475 19.207 89.915 19.4473 89.0068 19.4473C88.0986 19.4473 87.3633 19.21 86.8008 18.7354C86.2441 18.2607 85.9658 17.6279 85.9658 16.8369H87.7676C87.7676 17.2061 87.876 17.4932 88.0928 17.6982C88.3154 17.8975 88.6201 17.9971 89.0068 17.9971C89.3877 17.9971 89.6865 17.8975 89.9033 17.6982C90.1201 17.4932 90.2285 17.2061 90.2285 16.8369H92.0479ZM100.837 20.2031H103.474V30.8818H108.598V20.2031H111.243V30.8818H112.992L112.816 36.085H110.355V33H100.837V20.2031ZM122.309 27.4541H117.246V30.8818H123.188V33H114.609V20.2031H123.17V22.3389H117.246V25.3887H122.309V27.4541ZM135.149 33H132.513V27.5156H127.371V33H124.734V20.2031H127.371V25.3887H132.513V20.2031H135.149V33ZM146.83 22.3389H142.91V33H140.273V22.3389H136.406V20.2031H146.83V22.3389ZM150.979 28.4912V33H148.342V20.2031H153.334C154.295 20.2031 155.139 20.3789 155.865 20.7305C156.598 21.082 157.16 21.583 157.553 22.2334C157.945 22.8779 158.142 23.6133 158.142 24.4395C158.142 25.6934 157.711 26.6836 156.85 27.4102C155.994 28.1309 154.808 28.4912 153.29 28.4912H150.979ZM150.979 26.3555H153.334C154.031 26.3555 154.562 26.1914 154.925 25.8633C155.294 25.5352 155.479 25.0664 155.479 24.457C155.479 23.8301 155.294 23.3232 154.925 22.9365C154.556 22.5498 154.046 22.3506 153.396 22.3389H150.979V26.3555ZM161.209 24.8877L163.67 28.3154V28.4824L161.209 31.9102H159.565L161.675 28.4033L159.565 24.8877H161.209ZM164.663 24.8877L167.124 28.3154V28.4824L164.663 31.9102H163.02L165.129 28.4033L163.02 24.8877H164.663Z" fill="white"/>
</svg>
